PathFileType	4	(X/Y/Z)	S00_P01_T02_Participants1-2_P1_0-100.trc
DataRate	CameraRate	NumFrames	NumMarkers	Units	OrigDataRate	OrigDataStartFrame	OrigNumFrames
60	60	9	21	m	60	12	100
Frame#	Time	RHip			RKnee			RAnkle			RBigToe			RSmallToe			RHeel			LHip			LKnee			LAnkle			LBigToe			LSmallToe			LHeel			Neck			Head			Nose			RShoulder			RElbow			RWrist			LShoulder			LElbow			LWrist		
		X1	Y1	Z1	X2	Y2	Z2	X3	Y3	Z3	X4	Y4	Z4	X5	Y5	Z5	X6	Y6	Z6	X7	Y7	Z7	X8	Y8	Z8	X9	Y9	Z9	X10	Y10	Z10	X11	Y11	Z11	X12	Y12	Z12	X13	Y13	Z13	X14	Y14	Z14	X15	Y15	Z15	X16	Y16	Z16	X17	Y17	Z17	X18	Y18	Z18	X19	Y19	Z19	X20	Y20	Z20	X21	Y21	Z21
13	0.21666666666666667	-1.0510823269302578	0.972986943025182	-0.9742893791872275	-0.8759103531588879	0.9623461450774767	-0.7311558544269232	-0.8855913189602489	0.9404944584577329	-0.9652143495835966	-0.7902904561345201	0.935808410989901	-1.0449291020439997	-0.812905883336489	0.9153790016694192	-1.038996547447861	-0.9081799649757165	0.9471562363496441	-1.0072466209731685	-1.051626693824157	0.9735986256542946	-1.1184712050203858	-0.8780475094095532	0.9648169435117725	-1.3566458116637625	-0.8897635674582615	0.9427644904223563	-1.123774808968261	-0.7892552226645709	0.9345500154728085	-1.05778390012948	-0.8129873344793773	0.9147570403276016	-1.0616686351503004	-0.9115818608434466	0.9494095030098045	-1.0791953390920392	-1.08954885473535	1.379009596886797	-1.056983706368323	-1.0381373859646552	1.540420724204499	-1.0582499974145037	-0.9875262146248798	1.4461867989805655	-1.0442856820101982	-1.0967796931135974	1.3263602849966936	-0.9260443209304544	-1.0388232734304057	1.1452532908598465	-0.8509249135879702	-0.874496854974335	1.0785625584283989	-0.9288007503562659	-1.0809280993756811	1.3310078875172215	-1.1781691026350232	-1.0444448498709396	1.1586224380775088	-1.264532658189443	-0.9078492508307165	1.1093341309487945	-1.1277267399692659
14	0.23333333333333334	-1.0510855224573854	0.9749829635581381	-0.9742862233632674	-0.8759142809845185	0.9643416989807262	-0.7311491774811851	-0.8863832871153686	0.9428453800731922	-0.9652040043579527	-0.7913387779086133	0.9382248352999819	-1.0452342922277469	-0.8139449738784971	0.9177979358821285	-1.0392584319000167	-0.9090988126777441	0.9495769457577797	-1.0071562425956515	-1.0516294967033275	0.9755944523462804	-1.1184680926528703	-0.8780491367658342	0.9668119524231545	-1.3566408705818882	-0.8897659805615191	0.9447598616483485	-1.1237699394065201	-0.789257751465298	0.9365452456653158	-1.0577776374519938	-0.8129898712256911	0.9167522174333198	-1.061662696149617	-0.9115844665515123	0.9514050000160829	-1.079190617859163	-1.0895587820486927	1.3810011745989175	-1.0569881841392035	-1.038146974160567	1.5424126661526754	-1.0582542346430348	-1.0044517547888667	1.444164485479072	-1.057557022413274	-1.0967903120778122	1.3283524762462133	-0.9260508778448954	-1.0386999148283025	1.1467330264553885	-0.8521806472931426	-0.8737173010579602	1.0811600628902513	-0.9296147144005131	-1.080931814547606	1.333005450340051	-1.1781626700858636	-1.0444476112232675	1.1606188383279026	-1.264527572794916	-0.908071716675292	1.1125285426350027	-1.1269611487603546
15	0.25	-1.0510883547084457	0.9767510869999009	-0.9742834239736018	-0.8759177608468391	0.966109408208089	-0.731143267993599	-0.8870846357978227	0.9449281766292676	-0.9651923152127123	-0.7922680009529972	0.9403661151394129	-1.045501356112309	-0.8148659068650334	0.9199413867300864	-1.039487154215198	-0.9099123108978184	0.9517215179145505	-1.007073232604227	-1.051631981324871	0.9773624038779386	-1.1184653276125982	-0.8780505790760194	0.9685791786678825	-1.356636482472987	-0.8897681186846871	0.9465274092015373	-1.1237656212646285	-0.7892599914441493	0.9383126680306392	-1.0577720888138826	-0.8129921181856742	0.9185195928176717	-1.0616574339128608	-0.9115867754559766	0.9531726590967723	-1.0791864317782216	-1.0895675739798343	1.3827653566819946	-1.0569921419730226	-1.0381554662385513	1.544177170633296	-1.0582579753978487	-1.0044602334891806	1.445928930235828	-1.057561800750132	-1.0967997169695984	1.3301172020179766	-0.9260566818425726	-1.0385918423471239	1.1480507754606342	-0.8532954163991561	-0.8730338483375636	1.0834608916144253	-0.9303250905526294	-1.0809351130245979	1.3347749397673108	-1.1781569482248675	-1.044450061785311	1.16238729765103	-1.264523049280401	-0.9082746251892212	1.1153606400679303	-1.1262886686384137
16	0.26666666666666666	-1.051090807899449	0.9782818143070465	-0.9742809974671212	-0.8759207738739233	0.9676397762817881	-0.7311381558196044	-0.8876916642135556	0.9467315476515903	-0.9651802797092942	-0.7930729060337695	0.9422204653289589	-1.045730071338686	-0.8156635494053567	0.9217975767196275	-1.0396826910206178	-0.910616245574792	0.9535783363273554	-1.0069991298037209	-1.0516341337040722	0.9788929822032318	-1.1184629276908704	-0.8780518283267252	0.9701091284207353	-1.3566326750153657	-0.8897699701559897	0.9480576373973152	-1.123761879408878	-0.7892619306141703	0.9398427876522376	-1.0577672843856765	-0.8129940633560792	0.9200496717999944	-1.0616528771887839	-0.9115887749056241	0.9547029839281423	-1.0791828047593834	-1.089575184012219	1.3842926674115612	-1.0569955617815425	-1.0381628170925112	1.5457047602846719	-1.0582612042347375	-1.0044675723929766	1.4474564680967763	-1.0575659308344114	-1.0968078578745246	1.3316449835898367	-0.9260617032826721	-1.0384991944947954	1.14919688551462	-0.8542623080910633	-0.8724475550275006	1.085452599332491	-0.9309320437805804	-1.0809379743383034	1.3363068494934183	-1.1781519765285469	-1.044452186720993	1.1639183153803798	-1.2645191188365035	-0.9084547169435323	1.117814281885321	-1.1257108243677791
17	0.2833333333333333	-1.0510928683244614	0.9795669186580424	-0.9742789581719491	-0.8759233037075917	0.9689245786039512	-0.73113386673332	-0.8882011741172359	0.948245703060528	-0.9651688025969909	-0.7937489682565577	0.9437776688860995	-1.045920299833362	-0.8163334531750914	0.9233562963837911	-1.0398450760583253	-0.9112069784766738	0.9551373382587417	-1.0069353141920485	-1.0516359416894976	0.9801779613681042	-1.1184609084506412	-0.8780528775545172	0.9713935793975943	-1.3566294723846404	-0.8897715248484762	0.9493423223349625	-1.123758735464523	-0.789263558586966	0.9411273812984793	-1.0577632503212375	-0.8129956963353133	0.9213342313522325	-1.0616490509059862	-0.9115904539225449	0.9559877500541119	-1.0791797575886939	-1.0895815718870605	1.3855749002574476	-1.056998428066983	-1.0381689876754543	1.546987227161598	-1.0582639080127036	-1.0044737326783468	1.448738891431238	-1.057569393376134	-1.0968146915874168	1.3329276118334386	-0.9260659165925741	-1.038422069868165	1.1501628805399744	-0.8550753198750353	-0.8719592132111493	1.0871244950346728	-0.9314358648796729	-1.08094038062417	1.3375929464122274	-1.1781477896088919	-1.0444539731800129	1.1652036632843397	-1.2645158088157678	-0.9086090793114352	1.1198754744019142	-1.125228828532077
18	0.3	-1.0510945244581638	0.9805994981144638	-0.9742773181696774	-0.8759253366159642	0.9699569150834888	-0.7311304222974859	-0.8886104874822455	0.949462427167069	-0.9651586728468081	-0.7942923881336474	0.9450291467471191	-1.0460719657832271	-0.8168718842405726	0.9246089735972929	-1.0399743772740713	-0.9116814657914332	0.9563900800423992	-1.006882978207596	-1.0516373950571787	0.9812104401646107	-1.118459283062597	-0.8780537208999796	0.9724256334800173	-1.3566268950136737	-0.8897727742523135	0.9503745645351916	-1.1237562076402008	-0.7892648666418524	0.9421595500542629	-1.057760008580429	-0.8129970083922934	0.9223663727295541	-1.0616459760008923	-0.9115918032810171	0.9570200575281238	-1.0791773077625564	-1.0895867038492848	1.3866051703749445	-1.0570007279513156	-1.0381739452417478	1.5480176852343042	-1.0582660758800624	-1.0044786817948965	1.4497693144756765	-1.057572172318758	-1.096820181878704	1.3339581997228884	-0.9260693003909621	-1.0383605356477483	1.1509415653578525	-0.8557294017536154	-0.8715693978001994	1.0884676737001289	-0.9318369024722306	-1.0809423167932326	1.3386263233164482	-1.1781444168150008	-1.0444554102371602	1.1662364382602721	-1.2645131424141676	-0.9087352023036295	1.1215324647844354	-1.1248436208747459
19	0.31666666666666665	-1.0510957670166663	0.9813740034681686	-0.9742760872137286	-0.8759268615530832	0.9707312379855211	-0.7311278398100378	-0.8889174546025559	0.9503751131337863	-0.965150543888315	-0.794700108947843	0.9459679966002277	-1.0461850338296066	-0.8172758394282462	0.9255487120314072	-1.0400706746371713	-0.9120372658773307	0.9573297720505338	-1.0068431026880822	-1.0516384855676932	0.9819848699736604	-1.1184580621899267	-0.8780543536405252	0.9731997445396607	-1.356624959427754	-0.8897737115163353	0.9511488167725867	-1.1237543106185928	-0.7892658477636139	0.942933747149587	-1.057757576830931	-0.8129979925038693	0.9231405492985201	-1.0616436693212419	-0.9115928155530288	0.957794358748205	-1.0791754693857676	-1.0895905527723546	1.3873779423442136	-1.0570024511607545	-1.0381776634718167	1.548790598131447	-1.0582676992236426	-1.0044823935841447	1.4505422010743523	-1.0575742548349543	-1.0968242996307125	1.3347312100838078	-0.926071837534915	-1.0383146357274895	1.1515271004440875	-0.8562204872892977	-0.8712785123843165	1.0894750209129804	-0.9321355032776625	-1.080943770648448	1.33940142676411	-1.1781418819439584	-1.0444564890643322	1.1670110901685535	-1.2645111384419954	-0.9088310261448156	1.1227757983345341	-1.1245559057594068
20	0.3333333333333333	-1.0510965890252906	0.9818862720297133	-0.9742752726442951	-0.8759278702172848	0.9712433858260722	-0.7311261322233598	-0.8891204649418184	0.9509788042007099	-0.9651449172234805	-0.7949698366048361	0.946589038125885	-1.046259492658676	-0.8175430652942584	0.9261703360815385	-1.0401340431931008	-0.9122725504949953	0.957951320692825	-1.006816436527458	-1.0516392070287777	0.982497088548722	-1.1184572538755793	-0.8780547722265897	0.9737117522024274	-1.3566236780810352	-0.8897743314956623	0.9516609178483365	-1.123753055439318	-0.789266496687569	0.9434458117283356	-1.0577559683330566	-0.8129986433996664	0.9236526003052635	-1.0616421435140184	-0.9115934851602407	0.9583064922325637	-1.0791742530613488	-1.089593098315106	1.3878890638456314	-1.0570035900363621	-1.0381801226270762	1.5493018128203941	-1.0582687716488741	-1.0044848484308033	1.4510533983573035	-1.0575756313514812	-1.096827023007689	1.3352424892799217	-0.9260735151934318	-1.0382843971080482	1.1519150729582799	-0.8565455224469201	-0.8710868250503834	1.0901412268805886	-0.9323319662631151	-1.0809447330013378	1.3399140908912357	-1.1781402029661276	-1.0444572030916741	1.1675234556116305	-1.2645098111061372	-0.9088949810759089	1.1235983795565987	-1.1243661811239751
21	0.35	-1.0510969858690247	0.9821335524744972	-0.9742748793245065	-0.8759283571336378	0.9714906079552458	-0.7311253080876368	-0.88921845505598	0.951270223696722	-0.9651421298906934	-0.7951000543080015	0.9468888458610419	-1.046295342263918	-0.8176720721676464	0.9264704235339531	-1.0401645399398018	-0.9123861129358681	0.9582513590232865	-1.0068034811574027	-1.051639555342018	0.9827443448584487	-1.1184568634571406	-0.8780549743086958	0.9739589066765252	-1.3566230592334712	-0.8897746307870916	0.9519081174246975	-1.1237524494115259	-0.7892668099329347	0.9436929936797985	-1.0577551918546555	-0.812998957595259	0.9238997757065539	-1.0616414069425402	-0.911593808412582	0.9585537074561646	-1.0791736658083455	-1.0895943270367998	1.3881357904216074	-1.0570041395394365	-1.038181309663701	1.5495485843726662	-1.0582692889619039	-1.0044860333737473	1.451300161504025	-1.0575762955649664	-1.0968283375805736	1.3354892919831545	-0.9260743248998797	-1.0382698347063166	1.1521025507119527	-0.8567024859208827	-0.8709944963305236	1.090462794997886	-0.932426507577904	-1.0809451977596722	1.340161562275718	-1.1781393918174874	-1.0444575478998914	1.1677707828080373	-1.2645091698428272	-0.908926017150566	1.1239955163102184	-1.1242747617033213
